<svg id="Layer_1" data-name="Layer 1" xmlns="http://www.w3.org/2000/svg" viewBox="0 0 56 85"><defs><style>.cls-1{fill:#fff;}</style></defs><path class="cls-1" d="M28.1,85a2.74,2.74,0,0,1-2.4-1.46L2.7,38.89A27.61,27.61,0,0,1,28,0h0A27.76,27.76,0,0,1,55.71,27.71a29.38,29.38,0,0,1-2.3,11.18l-23,44.75A2.36,2.36,0,0,1,28.1,85Zm0-83A25.65,25.65,0,0,0,2.49,27.6,25.09,25.09,0,0,0,4.69,38l23,44.65a.49.49,0,0,0,.52.31.49.49,0,0,0,.52-.31l23-44.75A26.38,26.38,0,0,0,53.82,27.6,25.81,25.81,0,0,0,28.1,2Zm0,40A14.54,14.54,0,1,1,42.64,27.5,14.5,14.5,0,0,1,28.1,42Zm0-27A12.44,12.44,0,1,0,40.55,27.5,12.4,12.4,0,0,0,28.1,15.06Z"/></svg>