<?xml version="1.0" encoding="utf-8"?>
<!-- Generator: Adobe Illustrator 22.1.0, SVG Export Plug-In . SVG Version: 6.00 Build 0)  -->
<svg version="1.1" id="Layer_1" xmlns="http://www.w3.org/2000/svg" xmlns:xlink="http://www.w3.org/1999/xlink" x="0px" y="0px"
	 viewBox="0 0 86.7 90.1" style="enable-background:new 0 0 86.7 90.1;" xml:space="preserve">
<style type="text/css">
	.st0{fill:#134A86;}
	.st1{fill:#F58220;}
	.st2{fill:none;stroke:#BE1E2D;stroke-width:1.9843;stroke-miterlimit:10;}
	.st3{fill-rule:evenodd;clip-rule:evenodd;fill:#BE1E2D;}
	.st4{fill:#BE1E2D;}
	.st5{fill:none;stroke:#095E7D;stroke-width:1.9843;stroke-miterlimit:10;}
	.st6{fill:#095E7D;}
	.st7{fill:none;stroke:#429CD6;stroke-width:1.9843;stroke-miterlimit:10;}
	.st8{fill-rule:evenodd;clip-rule:evenodd;fill:#429CD6;}
	.st9{fill:#429CD6;}
	.st10{fill:none;stroke:#3B589E;stroke-width:1.9843;stroke-miterlimit:10;}
	.st11{fill-rule:evenodd;clip-rule:evenodd;fill:#3B589E;}
	.st12{fill:#3B589E;}
	.st13{fill:none;stroke:#EF4136;stroke-width:1.9843;stroke-miterlimit:10;}
	.st14{fill:#EF4136;}
</style>
<g>
	<path class="st5" d="M70.5,25.8c4.9,6,7.8,13.6,7.8,21.9c0,19.1-15.5,34.6-34.6,34.6S9.2,66.8,9.2,47.7s15.5-34.6,34.6-34.6
		c6.4,0,12.5,1.8,17.6,4.8"/>
	<path class="st6" d="M61.2,33.8H26.4c-3.2,0-5.8,2.1-5.8,4.7V57c0,2.6,2.6,4.7,5.8,4.7h34.8c3.2,0,5.8-2.1,5.8-4.7V38.4
		C67,35.9,64.4,33.8,61.2,33.8z M51.6,46.2l12.3-8.4c0.1,0.2,0.2,0.4,0.2,0.7V57c0,0.2-0.1,0.3-0.1,0.5L51.6,46.2z M61.2,36.1
		c0.2,0,0.4,0.1,0.5,0.1L43.8,48.5L25.8,36.2c0.2,0,0.4-0.1,0.5-0.1H61.2z M23.6,57.5c0-0.2-0.1-0.3-0.1-0.5V38.4
		c0-0.2,0.1-0.5,0.2-0.7l12.3,8.4L23.6,57.5z M26.4,59.4c-0.3,0-0.6-0.1-0.8-0.1l12.6-11.5l4.7,3.2c0.3,0.2,0.6,0.3,0.9,0.3
		c0.3,0,0.7-0.1,0.9-0.3l4.7-3.2L62,59.2c-0.3,0.1-0.5,0.1-0.8,0.1H26.4z"/>
	<polygon class="st6" points="65.1,11.5 65,12.8 73.7,12.6 64.3,21.8 65.6,23.1 75,13.9 74.9,22.9 76.1,22.7 76.8,10.8 	"/>
</g>
</svg>
