<?xml version="1.0" encoding="utf-8"?>
<!-- Generator: Adobe Illustrator 22.1.0, SVG Export Plug-In . SVG Version: 6.00 Build 0)  -->
<svg version="1.1" id="Layer_1" xmlns="http://www.w3.org/2000/svg" xmlns:xlink="http://www.w3.org/1999/xlink" x="0px" y="0px"
	 viewBox="0 0 162.5 90.1" style="enable-background:new 0 0 162.5 90.1;" xml:space="preserve">
<style type="text/css">
	.st0{fill:#134A86;}
	.st1{fill:#F58220;}
	.st2{fill:none;stroke:#BE1E2D;stroke-width:1.9843;stroke-miterlimit:10;}
	.st3{fill-rule:evenodd;clip-rule:evenodd;fill:#BE1E2D;}
	.st4{fill:#BE1E2D;}
	.st5{fill:none;stroke:#095E7D;stroke-width:1.9843;stroke-miterlimit:10;}
	.st6{fill:#095E7D;}
	.st7{fill:none;stroke:#429CD6;stroke-width:1.9843;stroke-miterlimit:10;}
	.st8{fill-rule:evenodd;clip-rule:evenodd;fill:#429CD6;}
	.st9{fill:#429CD6;}
	.st10{fill:none;stroke:#3B589E;stroke-width:1.9843;stroke-miterlimit:10;}
	.st11{fill-rule:evenodd;clip-rule:evenodd;fill:#3B589E;}
	.st12{fill:#3B589E;}
	.st13{font-family:'LucidaGrande';}
	.st14{font-size:22.6562px;}
	.st15{fill:none;stroke:#EF4136;stroke-width:1.9843;stroke-miterlimit:10;}
	.st16{fill:#EF4136;}
</style>
<g>
	<path class="st10" d="M146.2,25.8c5,5.9,8,13.6,8,21.9v0c0,18.8-15.3,34.1-34.1,34.1H49.7c-18.8,0-34.1-15.3-34.1-34.1v0
		c0-18.8,15.3-34.1,34.1-34.1h70.4c5.9,0,11.4,1.5,16.2,4.1"/>
	<path class="st11" d="M51,35.4c1.1,0,2.1,0,3.2,0c0.1,0,0.3,0,0.4,0v-5.5c-0.6-0.1-1.2-0.1-1.8-0.2c-1.1,0-2.2-0.1-3.3-0.1
		c-1.7,0-3.2,0.4-4.6,1.4c-1.6,1.1-2.4,2.7-2.8,4.6C42.1,36.4,42,37.2,42,38c0,1.2,0,2.5,0,3.7v0.5h-5.3v6.2H42v15.5h6.4V48.4h5.2
		c0.3-2,0.5-4.1,0.8-6.2c-0.4,0-0.8,0-1.2,0c-1.5,0-4.9,0-4.9,0s0-3.1,0.1-4.4C48.4,36,49.5,35.4,51,35.4z"/>
	<text transform="matrix(1 0 0 1 68.8128 54.1863)" class="st12 st13 st14">share</text>
	<polygon class="st12" points="140.4,11.8 140.3,13 149,12.8 139.7,22 140.9,23.3 150.3,14.1 150.3,23.2 151.4,22.9 152.2,11 	"/>
</g>
</svg>
