<?xml version="1.0" encoding="utf-8"?>
<!-- Generator: Adobe Illustrator 22.1.0, SVG Export Plug-In . SVG Version: 6.00 Build 0)  -->
<svg version="1.1" id="Layer_1" xmlns="http://www.w3.org/2000/svg" xmlns:xlink="http://www.w3.org/1999/xlink" x="0px" y="0px"
	 viewBox="0 0 90.8 90.1" style="enable-background:new 0 0 90.8 90.1;" xml:space="preserve">
<style type="text/css">
	.st0{fill:#134A86;}
	.st1{fill:#F58220;}
	.st2{fill:none;stroke:#BE1E2D;stroke-width:1.9843;stroke-miterlimit:10;}
	.st3{fill-rule:evenodd;clip-rule:evenodd;fill:#BE1E2D;}
	.st4{fill:#BE1E2D;}
	.st5{fill:none;stroke:#095E7D;stroke-width:1.9843;stroke-miterlimit:10;}
	.st6{fill:#095E7D;}
	.st7{fill:none;stroke:#429CD6;stroke-width:1.9843;stroke-miterlimit:10;}
	.st8{fill-rule:evenodd;clip-rule:evenodd;fill:#429CD6;}
	.st9{fill:#429CD6;}
	.st10{fill:none;stroke:#3B589E;stroke-width:1.9843;stroke-miterlimit:10;}
	.st11{fill-rule:evenodd;clip-rule:evenodd;fill:#3B589E;}
	.st12{fill:#3B589E;}
	.st13{fill:none;stroke:#EF4136;stroke-width:1.9843;stroke-miterlimit:10;}
	.st14{fill:#EF4136;}
</style>
<g>
	<path class="st13" d="M72.7,25.8c4.9,6,7.8,13.6,7.8,21.9c0,19.1-15.5,34.6-34.6,34.6S11.4,66.8,11.4,47.7s15.5-34.6,34.6-34.6
		c6.4,0,12.5,1.8,17.6,4.8"/>
	<g>
		<polygon class="st14" points="69.7,44.9 64.7,44.9 64.7,39.9 64.7,39.8 64.6,39.8 60.8,39.8 60.7,39.8 60.7,39.9 60.7,44.9 
			55.7,44.9 55.6,44.9 55.6,45 55.6,48.7 55.6,48.9 55.7,48.9 60.7,48.9 60.7,53.8 60.7,54 60.8,54 64.6,54 64.7,54 64.7,53.8 
			64.7,48.9 69.7,48.9 69.8,48.9 69.8,48.7 69.8,45 69.8,44.9 		"/>
	</g>
	<polygon class="st14" points="66.8,12.1 66.7,13.3 75.4,13.2 66.1,22.4 67.3,23.6 76.7,14.5 76.6,23.5 77.8,23.2 78.5,11.3 	"/>
	<path class="st14" d="M40.6,61.9c-7.7,1.7-15.6-3-17.5-10.7c-1.8-6.9,2.1-14.8,8.8-17.4c3.2-1.2,6.7-1.3,10-0.4
		c1.6,0.5,3.2,1.2,4.5,2.2c1.5,1.1,1.1,1.4-0.1,2.5c-0.6,0.6-1.3,1.3-1.8,2c-3-2.6-7.4-3.4-11.1-1.6c-4.1,1.9-6.2,6.7-5.3,11.1
		c0.9,4.4,4.7,7.4,9,7.7c4.4,0.4,9.1-2.3,9.4-7c0-0.6-0.6-1.3-1.2-1.2c-2,0.2-4,0.3-6,0.5c0-1.2,0-2.3,0-3.5c4.2,0,8.5,0,12.7-0.2
		C52.8,53.2,48,60.3,40.6,61.9z"/>
</g>
</svg>
