<?xml version="1.0" encoding="utf-8"?>
<!-- Generator: Adobe Illustrator 22.1.0, SVG Export Plug-In . SVG Version: 6.00 Build 0)  -->
<svg version="1.1" id="Layer_1" xmlns="http://www.w3.org/2000/svg" xmlns:xlink="http://www.w3.org/1999/xlink" x="0px" y="0px"
	 viewBox="0 0 96.3 90.1" style="enable-background:new 0 0 96.3 90.1;" xml:space="preserve">
<style type="text/css">
	.st0{fill:#134A86;}
	.st1{fill:#F58220;}
	.st2{fill:none;stroke:#BE1E2D;stroke-width:1.9843;stroke-miterlimit:10;}
	.st3{fill-rule:evenodd;clip-rule:evenodd;fill:#BE1E2D;}
	.st4{fill:#BE1E2D;}
	.st5{fill:none;stroke:#095E7D;stroke-width:1.9843;stroke-miterlimit:10;}
	.st6{fill:#095E7D;}
	.st7{fill:none;stroke:#429CD6;stroke-width:1.9843;stroke-miterlimit:10;}
	.st8{fill-rule:evenodd;clip-rule:evenodd;fill:#429CD6;}
	.st9{fill:#429CD6;}
	.st10{fill:none;stroke:#3B589E;stroke-width:1.9843;stroke-miterlimit:10;}
	.st11{fill-rule:evenodd;clip-rule:evenodd;fill:#3B589E;}
	.st12{fill:#3B589E;}
	.st13{fill:none;stroke:#EF4136;stroke-width:1.9843;stroke-miterlimit:10;}
	.st14{fill:#EF4136;}
</style>
<g>
	<path class="st2" d="M77.2,25.8c4.9,6,7.8,13.6,7.8,21.9c0,19.1-15.5,34.6-34.6,34.6S15.8,66.8,15.8,47.7s15.5-34.6,34.6-34.6
		c6.4,0,12.5,1.8,17.6,4.8"/>
	<path class="st3" d="M47.8,53.9c0,0.1-0.1,0.2-0.1,0.3c-1.4,5.5-1.6,6.7-3,9.3c-0.7,1.2-1.5,2.4-2.3,3.5c-0.1,0.1-0.2,0.3-0.4,0.2
		c-0.2,0-0.2-0.2-0.3-0.4c-0.2-1.7-0.4-3.4-0.3-5.1c0.1-2.2,0.3-3,3.2-14.9c0-0.2,0-0.3-0.1-0.5c-0.7-1.8-0.8-3.7-0.2-5.6
		c1.3-4.1,5.9-4.4,6.7-1c0.5,2.1-0.8,4.8-1.8,8.8c-0.8,3.3,3.1,5.7,6.4,3.3c3.1-2.2,4.3-7.6,4-11.4c-0.4-7.6-8.8-9.2-14-6.8
		c-6,2.8-7.4,10.3-4.7,13.7c0.3,0.4,0.6,0.7,0.5,1.1c-0.2,0.7-0.3,1.4-0.5,2.1c-0.1,0.5-0.6,0.7-1.1,0.5c-1-0.4-1.8-1-2.5-1.9
		c-2.3-2.9-3-8.5,0.1-13.3c3.4-5.3,9.7-7.5,15.5-6.8c6.9,0.8,11.2,5.5,12,10.8c0.4,2.4,0.1,8.4-3.3,12.7c-3.9,4.9-10.3,5.2-13.2,2.2
		C48.2,54.5,48,54.2,47.8,53.9z"/>
	<polygon class="st4" points="72.2,11.1 72.1,12.3 80.8,12.1 71.5,21.3 72.7,22.6 82.1,13.4 82.1,22.5 83.3,22.2 84,10.3 	"/>
</g>
</svg>
