<?xml version="1.0" encoding="utf-8"?>
<!-- Generator: Adobe Illustrator 22.1.0, SVG Export Plug-In . SVG Version: 6.00 Build 0)  -->
<svg version="1.1" id="Layer_1" xmlns="http://www.w3.org/2000/svg" xmlns:xlink="http://www.w3.org/1999/xlink" x="0px" y="0px"
	 viewBox="0 0 92.2 90.1" style="enable-background:new 0 0 92.2 90.1;" xml:space="preserve">
<style type="text/css">
	.st0{fill:#134A86;}
	.st1{fill:#F58220;}
	.st2{fill:none;stroke:#BE1E2D;stroke-width:1.9843;stroke-miterlimit:10;}
	.st3{fill-rule:evenodd;clip-rule:evenodd;fill:#BE1E2D;}
	.st4{fill:#BE1E2D;}
	.st5{fill:none;stroke:#095E7D;stroke-width:1.9843;stroke-miterlimit:10;}
	.st6{fill:#095E7D;}
	.st7{fill:none;stroke:#429CD6;stroke-width:1.9843;stroke-miterlimit:10;}
	.st8{fill-rule:evenodd;clip-rule:evenodd;fill:#429CD6;}
	.st9{fill:#429CD6;}
	.st10{fill:none;stroke:#3B589E;stroke-width:1.9843;stroke-miterlimit:10;}
	.st11{fill-rule:evenodd;clip-rule:evenodd;fill:#3B589E;}
	.st12{fill:#3B589E;}
	.st13{fill:none;stroke:#EF4136;stroke-width:1.9843;stroke-miterlimit:10;}
	.st14{fill:#EF4136;}
</style>
<g>
	<path class="st7" d="M73.4,25.8c4.9,6,7.8,13.6,7.8,21.9c0,19.1-15.5,34.6-34.6,34.6S12.1,66.8,12.1,47.7s15.5-34.6,34.6-34.6
		c6.4,0,12.5,1.8,17.6,4.8"/>
	<path class="st8" d="M37.7,57.2c-4.8-0.1-7.9-3-8.7-5.3c1.3,0.2,2.7,0.2,4-0.1c0,0,0.1,0,0.1-0.1c-2.6-0.5-4.7-1.7-6.1-3.5
		c-0.9-1.2-1.4-2.6-1.4-4.1c1.3,0.6,2.7,0.9,4.2,0.9c-2-1.2-3.3-2.7-3.8-4.7c-0.5-2-0.2-3.8,1-5.6c5.1,4.9,11.4,7.6,19.2,8.1
		c-0.1-0.3-0.1-0.6-0.2-0.8c-0.3-1.8,0.2-3.5,1.4-5c1.5-1.9,3.6-3.1,6.3-3.5c3.1-0.4,5.9,0.3,8.2,2.1c0.2,0.1,0.3,0.2,0.5,0.1
		c1.9-0.3,3.7-0.9,5.4-1.7c0,0,0.1,0,0.1-0.1c0,0,0,0,0.1,0c-0.7,1.8-2.1,3.2-4,4.2c1.8-0.2,3.5-0.6,5.2-1.2c0,0,0,0,0,0
		c-0.4,0.4-0.7,0.8-1.1,1.2c-1,1-2.1,1.9-3.4,2.7c-0.1,0.1-0.2,0.1-0.2,0.2c0.1,1.1,0,2.3-0.2,3.4c-0.4,2.4-1.2,4.7-2.4,6.9
		c-1.3,2.3-2.9,4.3-5,6.1c-3.6,3-7.8,5-12.8,5.9c-1.7,0.3-3.4,0.5-5.2,0.5c-5.4,0.1-10.4-1-14.9-3.3c-0.1,0-0.1-0.1-0.2-0.1
		c3.3,0.3,6.4-0.1,9.3-1.1C34.9,58.8,36.4,58.1,37.7,57.2z"/>
	<polygon class="st9" points="68.7,11.1 68.6,12.3 77.3,12.1 68,21.3 69.2,22.6 78.6,13.4 78.6,22.5 79.8,22.2 80.5,10.3 	"/>
</g>
</svg>
